<svg width="285" height="200" viewBox="0 0 285 200" fill="none" xmlns="http://www.w3.org/2000/svg">
<g filter="url(#filter0_d_384_129)">
<rect width="285" height="200" rx="20" fill="white"/>
<path d="M134 106C134 105.935 134 105.869 134 105.8V94.2002C134 93.0801 134 92.5196 134.218 92.0918C134.41 91.7155 134.715 91.4097 135.092 91.218C135.52 91 136.08 91 137.2 91H148.8C149.92 91 150.48 91 150.908 91.218C151.284 91.4097 151.59 91.7155 151.782 92.0918C152 92.5192 152 93.079 152 94.1969V105.803C152 106.288 152 106.668 151.982 106.977M134 106C134.001 106.988 134.013 107.506 134.218 107.907C134.41 108.284 134.715 108.59 135.092 108.782C135.519 109 136.079 109 137.197 109H148.804C149.921 109 150.48 109 150.908 108.782C151.284 108.59 151.59 108.284 151.782 107.907C151.906 107.665 151.959 107.381 151.982 106.977M134 106L138.768 100.438L138.769 100.436C139.192 99.9426 139.404 99.6955 139.655 99.6064C139.876 99.5282 140.117 99.53 140.336 99.6113C140.587 99.704 140.795 99.9539 141.212 100.454L143.883 103.66C144.269 104.123 144.463 104.355 144.699 104.449C144.906 104.531 145.136 104.541 145.35 104.477C145.594 104.405 145.809 104.19 146.239 103.761L146.736 103.264C147.173 102.826 147.392 102.608 147.64 102.536C147.857 102.473 148.09 102.487 148.299 102.573C148.537 102.672 148.73 102.912 149.117 103.396L151.982 106.977M151.982 106.977L152 107M146 97C145.448 97 145 96.5523 145 96C145 95.4477 145.448 95 146 95C146.552 95 147 95.4477 147 96C147 96.5523 146.552 97 146 97Z" stroke="#039FC8" stroke-width="2" stroke-linecap="round" stroke-linejoin="round"/>
</g>
<defs>
<filter id="filter0_d_384_129" x="-4" y="0" width="293" height="208" filterUnits="userSpaceOnUse" color-interpolation-filters="sRGB">
<feFlood flood-opacity="0" result="BackgroundImageFix"/>
<feColorMatrix in="SourceAlpha" type="matrix" values="0 0 0 0 0 0 0 0 0 0 0 0 0 0 0 0 0 0 127 0" result="hardAlpha"/>
<feOffset dy="4"/>
<feGaussianBlur stdDeviation="2"/>
<feComposite in2="hardAlpha" operator="out"/>
<feColorMatrix type="matrix" values="0 0 0 0 0 0 0 0 0 0 0 0 0 0 0 0 0 0 0.25 0"/>
<feBlend mode="normal" in2="BackgroundImageFix" result="effect1_dropShadow_384_129"/>
<feBlend mode="normal" in="SourceGraphic" in2="effect1_dropShadow_384_129" result="shape"/>
</filter>
</defs>
</svg>
