<svg width="285" height="257" viewBox="0 0 285 257" fill="none" xmlns="http://www.w3.org/2000/svg">
<g filter="url(#filter0_d_299_598)">
<rect width="285" height="257" rx="20" fill="white"/>
<path d="M134 136.211C134 136.128 134 136.042 134 135.954V121.048C134 119.608 134 118.888 134.218 118.339C134.41 117.855 134.715 117.462 135.092 117.216C135.52 116.936 136.08 116.936 137.2 116.936H148.8C149.92 116.936 150.48 116.936 150.908 117.216C151.284 117.462 151.59 117.855 151.782 118.339C152 118.888 152 119.607 152 121.044V135.958C152 136.581 152 137.069 151.982 137.467M134 136.211C134.001 137.481 134.013 138.146 134.218 138.662C134.41 139.145 134.715 139.539 135.092 139.786C135.519 140.066 136.079 140.066 137.197 140.066H148.804C149.921 140.066 150.48 140.066 150.908 139.786C151.284 139.539 151.59 139.145 151.782 138.662C151.906 138.351 151.959 137.985 151.982 137.467M134 136.211L138.768 129.063L138.769 129.061C139.192 128.427 139.404 128.109 139.655 127.995C139.876 127.894 140.117 127.897 140.336 128.001C140.587 128.12 140.795 128.441 141.212 129.084L143.883 133.203C144.269 133.798 144.463 134.097 144.699 134.217C144.906 134.323 145.136 134.335 145.35 134.254C145.594 134.161 145.809 133.885 146.239 133.333L146.736 132.694C147.173 132.132 147.392 131.851 147.64 131.759C147.857 131.679 148.09 131.696 148.299 131.807C148.537 131.934 148.73 132.243 149.117 132.864L151.982 137.467M151.982 137.467L152 137.495M146 124.646C145.448 124.646 145 124.07 145 123.361C145 122.651 145.448 122.076 146 122.076C146.552 122.076 147 122.651 147 123.361C147 124.07 146.552 124.646 146 124.646Z" stroke="#039FC8" stroke-width="2" stroke-linecap="round" stroke-linejoin="round"/>
</g>
<defs>
<filter id="filter0_d_299_598" x="-4" y="0" width="293" height="265" filterUnits="userSpaceOnUse" color-interpolation-filters="sRGB">
<feFlood flood-opacity="0" result="BackgroundImageFix"/>
<feColorMatrix in="SourceAlpha" type="matrix" values="0 0 0 0 0 0 0 0 0 0 0 0 0 0 0 0 0 0 127 0" result="hardAlpha"/>
<feOffset dy="4"/>
<feGaussianBlur stdDeviation="2"/>
<feComposite in2="hardAlpha" operator="out"/>
<feColorMatrix type="matrix" values="0 0 0 0 0 0 0 0 0 0 0 0 0 0 0 0 0 0 0.25 0"/>
<feBlend mode="normal" in2="BackgroundImageFix" result="effect1_dropShadow_299_598"/>
<feBlend mode="normal" in="SourceGraphic" in2="effect1_dropShadow_299_598" result="shape"/>
</filter>
</defs>
</svg>
