<svg width="285" height="200" viewBox="0 0 285 200" fill="none" xmlns="http://www.w3.org/2000/svg">
<g filter="url(#filter0_d_384_125)">
<rect width="285" height="200" rx="20" fill="white"/>
<path d="M134 105C134 104.935 134 104.869 134 104.8V93.2002C134 92.0801 134 91.5196 134.218 91.0918C134.41 90.7155 134.715 90.4097 135.092 90.218C135.52 90 136.08 90 137.2 90H148.8C149.92 90 150.48 90 150.908 90.218C151.284 90.4097 151.59 90.7155 151.782 91.0918C152 91.5192 152 92.079 152 93.1969V104.803C152 105.288 152 105.668 151.982 105.977M134 105C134.001 105.988 134.013 106.506 134.218 106.907C134.41 107.284 134.715 107.59 135.092 107.782C135.519 108 136.079 108 137.197 108H148.804C149.921 108 150.48 108 150.908 107.782C151.284 107.59 151.59 107.284 151.782 106.907C151.906 106.665 151.959 106.381 151.982 105.977M134 105L138.768 99.4375L138.769 99.436C139.192 98.9426 139.404 98.6955 139.655 98.6064C139.876 98.5282 140.117 98.53 140.336 98.6113C140.587 98.704 140.795 98.9539 141.212 99.4541L143.883 102.66C144.269 103.123 144.463 103.355 144.699 103.449C144.906 103.531 145.136 103.541 145.35 103.477C145.594 103.405 145.809 103.19 146.239 102.761L146.736 102.264C147.173 101.826 147.392 101.608 147.64 101.536C147.857 101.473 148.09 101.487 148.299 101.573C148.537 101.672 148.73 101.912 149.117 102.396L151.982 105.977M151.982 105.977L152 106M146 96C145.448 96 145 95.5523 145 95C145 94.4477 145.448 94 146 94C146.552 94 147 94.4477 147 95C147 95.5523 146.552 96 146 96Z" stroke="#039FC8" stroke-width="2" stroke-linecap="round" stroke-linejoin="round"/>
</g>
<defs>
<filter id="filter0_d_384_125" x="-4" y="0" width="293" height="208" filterUnits="userSpaceOnUse" color-interpolation-filters="sRGB">
<feFlood flood-opacity="0" result="BackgroundImageFix"/>
<feColorMatrix in="SourceAlpha" type="matrix" values="0 0 0 0 0 0 0 0 0 0 0 0 0 0 0 0 0 0 127 0" result="hardAlpha"/>
<feOffset dy="4"/>
<feGaussianBlur stdDeviation="2"/>
<feComposite in2="hardAlpha" operator="out"/>
<feColorMatrix type="matrix" values="0 0 0 0 0 0 0 0 0 0 0 0 0 0 0 0 0 0 0.25 0"/>
<feBlend mode="normal" in2="BackgroundImageFix" result="effect1_dropShadow_384_125"/>
<feBlend mode="normal" in="SourceGraphic" in2="effect1_dropShadow_384_125" result="shape"/>
</filter>
</defs>
</svg>
