<svg width="48" height="11" viewBox="0 0 48 11" fill="none" xmlns="http://www.w3.org/2000/svg">
<path d="M17.0176 3.12109C17.8182 3.12109 18.5608 3.37407 19.1758 3.80469V3.32715H21.3535V10.792H19.1758V10.3154C18.5607 10.746 17.8182 10.999 17.0176 10.999C14.8987 10.9989 13.1809 9.23569 13.1807 7.06055C13.1807 4.88521 14.8985 3.12117 17.0176 3.12109ZM39.9873 3.12109C40.788 3.12115 41.5305 3.37403 42.1455 3.80469V3.32715H44.3223V10.792H42.1455V10.3154C41.5305 10.746 40.788 10.999 39.9873 10.999C37.8683 10.999 36.1506 9.23574 36.1504 7.06055C36.1504 4.88516 37.8682 3.12109 39.9873 3.12109ZM46.6338 8.14551C47.3882 8.14551 47.9998 8.77337 48 9.54785C48 10.3223 47.3883 10.9512 46.6338 10.9512C45.8794 10.9511 45.2676 10.3222 45.2676 9.54785C45.2678 8.77345 45.8795 8.14563 46.6338 8.14551ZM8.43945 0C8.43945 2.33725 7.55262 4.5118 5.97168 6.12793L9.30664 10.7969H6.32617L2.70117 5.72266L3.63672 5.00293C5.1881 3.80989 6.07812 1.98675 6.07812 0H8.43945ZM2.41406 0V10.7959H0V0H2.41406ZM12.2891 10.7939H10.0098V0.00195312H12.2891V10.7939ZM24.7217 4.30078C25.1581 3.71767 25.9714 3.32913 26.8555 3.3291V5.50098C26.8468 5.50086 26.8387 5.50002 26.8301 5.5C25.9686 5.5 24.7266 6.13275 24.7266 7.30859V10.793H22.4932V3.3291H24.7217V4.30078ZM32.2812 3.12793C34.0351 3.12793 35.3808 4.30885 35.3809 6.0459V10.793H33.2061V6.85449C33.2059 5.76594 32.656 5.17969 31.6992 5.17969C30.8065 5.17973 30.0655 5.73515 30.0654 6.87012V10.793H27.8701V3.3291H30.0381V4.16895C30.5883 3.40442 31.4117 3.12796 32.2812 3.12793ZM17.1963 5.13965C16.1069 5.13968 15.2236 5.99986 15.2236 7.06055C15.2239 8.12103 16.107 8.98044 17.1963 8.98047C18.2857 8.98047 19.1687 8.12104 19.1689 7.06055C19.1689 5.99984 18.2859 5.13965 17.1963 5.13965ZM40.166 5.13965C39.0765 5.13965 38.1934 5.99984 38.1934 7.06055C38.1936 8.12104 39.0766 8.98047 40.166 8.98047C41.2552 8.98027 42.1384 8.12092 42.1387 7.06055C42.1387 5.99997 41.2554 5.13985 40.166 5.13965Z" fill="#17120F"/>
</svg>
