<svg width="67" height="11" viewBox="0 0 67 11" fill="none" xmlns="http://www.w3.org/2000/svg">
<path d="M24.1289 3.12109C25.2212 3.12114 26.2341 3.37415 27.0732 3.80469V3.32715H30.0449V10.792H27.0732V10.3154C26.2341 10.7459 25.2213 10.999 24.1289 10.999C21.2373 10.999 18.8929 9.23574 18.8926 7.06055C18.8926 4.88516 21.2371 3.12109 24.1289 3.12109ZM55.4727 3.12109C56.5654 3.12112 57.5787 3.37398 58.418 3.80469V3.32715H61.3887V10.792H58.418V10.3154C57.5787 10.746 56.5654 10.999 55.4727 10.999C52.5811 10.999 50.2366 9.23574 50.2363 7.06055C50.2363 4.88516 52.5809 3.12109 55.4727 3.12109ZM64.543 8.14551C65.5724 8.14551 66.4069 8.77337 66.4072 9.54785C66.4072 10.3223 65.5726 10.9512 64.543 10.9512C63.5134 10.9512 62.6787 10.3223 62.6787 9.54785C62.679 8.77338 63.5135 8.14551 64.543 8.14551ZM12.4229 0C12.4229 2.33731 11.2121 4.51179 9.05469 6.12793L13.6064 10.7969H9.53906L4.59277 5.72266L5.86914 5.00293C7.98614 3.80989 9.2002 1.98674 9.2002 0H12.4229ZM4.2002 0V10.7959H0.90625V0H4.2002ZM17.6768 10.7939H14.5654V0.00195312H17.6768V10.7939ZM34.6416 4.30078C35.2372 3.71765 36.3473 3.3291 37.5537 3.3291V5.50098C37.5417 5.50087 37.5296 5.5 37.5176 5.5C36.3421 5.50017 34.6484 6.13291 34.6484 7.30859V10.793H31.5996V3.3291H34.6416V4.30078ZM44.957 3.12793C47.3504 3.12793 49.1864 4.30885 49.1865 6.0459V10.793H46.2197V6.85449C46.2196 5.76594 45.4686 5.17969 44.1631 5.17969C42.9448 5.1797 41.9327 5.73512 41.9326 6.87012V10.793H38.9385V3.3291H41.8965V4.16895C42.6473 3.40447 43.7705 3.12799 44.957 3.12793ZM24.3721 5.13965C22.8855 5.13977 21.6807 5.99992 21.6807 7.06055C21.681 8.12097 22.8857 8.98035 24.3721 8.98047C25.8587 8.98047 27.0641 8.12104 27.0645 7.06055C27.0645 5.99984 25.8589 5.13965 24.3721 5.13965ZM55.7158 5.13965C54.2292 5.13981 53.0244 5.99994 53.0244 7.06055C53.0248 8.12094 54.2294 8.9803 55.7158 8.98047C57.2024 8.98047 58.4079 8.12104 58.4082 7.06055C58.4082 5.99984 57.2026 5.13965 55.7158 5.13965Z" fill="#17120F"/>
</svg>
