<svg width="47" height="30" viewBox="0 0 47 30" fill="none" xmlns="http://www.w3.org/2000/svg">
<path d="M32.7543 0.417969C40.5186 0.417969 46.8127 6.85647 46.8129 14.7988C46.8129 22.7414 40.5187 29.1807 32.7543 29.1807C29.2746 29.1806 26.091 27.8863 23.6361 25.7441C21.1812 27.8863 17.9976 29.1807 14.5179 29.1807C6.75347 29.1807 0.459351 22.7414 0.459351 14.7988C0.45954 6.85647 6.75359 0.417969 14.5179 0.417969C17.9974 0.417983 21.1812 1.71156 23.6361 3.85352C26.091 1.71155 29.2748 0.418026 32.7543 0.417969Z" fill="#ED0006"/>
<path d="M32.7534 0.417969C40.5178 0.417969 46.8118 6.85647 46.812 14.7988C46.812 22.7414 40.5179 29.1807 32.7534 29.1807C29.2738 29.1806 26.0902 27.8863 23.6353 25.7441C26.6582 23.1064 28.5757 19.1819 28.5757 14.7988C28.5756 10.4158 26.6583 6.49123 23.6353 3.85352C26.0901 1.71155 29.2739 0.418026 32.7534 0.417969Z" fill="#F9A000"/>
<path d="M23.6344 3.85449C26.6575 6.4922 28.5747 10.4167 28.5748 14.7998C28.5748 19.1828 26.6573 23.1073 23.6344 25.7451C20.6115 23.1073 18.694 19.1828 18.694 14.7998C18.6941 10.4168 20.6114 6.4922 23.6344 3.85449Z" fill="#FF5E00"/>
</svg>
