<svg width="42" height="20" viewBox="0 0 42 20" fill="none" xmlns="http://www.w3.org/2000/svg">
<path d="M28.7949 0C35.7175 0 41.3291 4.38411 41.3291 9.79199C41.329 15.1998 35.7174 19.584 28.7949 19.584C25.6916 19.584 22.8531 18.7006 20.6641 17.2412C18.4752 18.7002 15.6371 19.584 12.5342 19.584C5.61179 19.5839 0.000101604 15.1998 0 9.79199C0 4.38416 5.61173 8.13334e-05 12.5342 0C15.637 0 18.4752 0.882897 20.6641 2.3418C22.853 0.882573 25.6917 1.80495e-06 28.7949 0Z" fill="#ED0006"/>
<path d="M28.7954 0C35.7177 0.000201915 41.3296 4.38423 41.3296 9.79199C41.3295 15.1997 35.7177 19.5838 28.7954 19.584C25.6922 19.584 22.8535 18.7004 20.6646 17.2412C23.3588 15.4452 25.0688 12.7757 25.0688 9.79199C25.0688 6.80813 23.359 4.1378 20.6646 2.3418C22.8535 0.882706 25.6924 0 28.7954 0Z" fill="#F9A000"/>
<path d="M20.6646 2.34277C23.3587 4.13877 25.0688 6.8083 25.0688 9.79199C25.0688 12.7755 23.3585 15.4443 20.6646 17.2402C17.971 15.4443 16.2613 12.7753 16.2612 9.79199C16.2612 6.80856 17.9708 4.13877 20.6646 2.34277Z" fill="#FF5E00"/>
</svg>
