<svg width="73" height="50" viewBox="0 0 73 50" fill="none" xmlns="http://www.w3.org/2000/svg">
<g filter="url(#filter0_d_971_1111)">
<rect x="1.65299" y="1.32292" width="69.4637" height="47.3542" rx="14.5521" fill="#FEB4C7" stroke="#D9D9D9" stroke-width="2.64583"/>
<path d="M29.262 22.5918C30.2351 22.5919 31.1375 22.9035 31.885 23.4336V22.8457H34.5315V32.0361H31.885V31.4482C31.1374 31.9783 30.2352 32.29 29.262 32.29C26.686 32.29 24.5971 30.1193 24.5969 27.4414C24.5969 24.7634 26.6859 22.5918 29.262 22.5918ZM57.1829 22.5918C58.1563 22.5918 59.0592 22.9034 59.8069 23.4336V22.8457H62.4534V32.0361H59.8069V31.4482C59.0592 31.9784 58.1563 32.29 57.1829 32.29C54.6071 32.2898 52.519 30.1192 52.5188 27.4414C52.5188 24.7635 54.607 22.592 57.1829 22.5918ZM65.2639 28.7783C66.1809 28.7784 66.9249 29.5515 66.925 30.5049C66.925 31.4582 66.181 32.2313 65.2639 32.2314C64.3467 32.2314 63.6028 31.4583 63.6028 30.5049C63.603 29.5514 64.3468 28.7783 65.2639 28.7783ZM18.8352 18.748C18.8352 21.6254 17.7562 24.3024 15.8342 26.292L19.8889 32.04H16.2659L11.8596 25.793L12.9963 24.9072C14.8823 23.4385 15.9641 21.1939 15.9641 18.748H18.8352ZM11.5071 18.748V32.0391H8.57251V18.748H11.5071ZM38.6243 24.043C39.1548 23.3251 40.1434 22.8468 41.218 22.8467V25.5205C41.2074 25.5204 41.1974 25.5195 41.1868 25.5195C40.1396 25.5196 38.6301 26.2976 38.6301 27.7451V32.0352H35.9143V22.8457H38.6243V24.043ZM47.8137 22.5977C49.9458 22.5977 51.5813 24.0529 51.5813 26.1914V32.0352H48.9377V27.1865C48.9377 25.8463 48.2688 25.124 47.1057 25.124C46.0206 25.1242 45.1194 25.8088 45.1194 27.2061V32.0352H42.4514V22.8457H45.0872V23.8809C45.7561 22.9395 46.7565 22.5977 47.8137 22.5977ZM23.5139 32.0332H20.7424V18.748H23.5139V32.0332ZM29.4807 25.0781C28.1565 25.0783 27.0833 26.1367 27.0833 27.4424C27.0835 28.7479 28.1566 29.8065 29.4807 29.8066C30.8051 29.8066 31.8789 28.748 31.8792 27.4424C31.8792 26.1366 30.8052 25.0781 29.4807 25.0781ZM57.4026 25.0781C56.0781 25.0781 55.0042 26.1366 55.0042 27.4424C55.0044 28.7479 56.0783 29.8066 57.4026 29.8066C58.7269 29.8066 59.8008 28.748 59.801 27.4424C59.801 26.1366 58.7271 25.0781 57.4026 25.0781Z" fill="#17120F"/>
</g>
<defs>
<filter id="filter0_d_971_1111" x="-19.6699" y="-20" width="112.109" height="90" filterUnits="userSpaceOnUse" color-interpolation-filters="sRGB">
<feFlood flood-opacity="0" result="BackgroundImageFix"/>
<feColorMatrix in="SourceAlpha" type="matrix" values="0 0 0 0 0 0 0 0 0 0 0 0 0 0 0 0 0 0 127 0" result="hardAlpha"/>
<feOffset/>
<feGaussianBlur stdDeviation="10"/>
<feComposite in2="hardAlpha" operator="out"/>
<feColorMatrix type="matrix" values="0 0 0 0 0 0 0 0 0 0 0 0 0 0 0 0 0 0 0.07 0"/>
<feBlend mode="normal" in2="BackgroundImageFix" result="effect1_dropShadow_971_1111"/>
<feBlend mode="normal" in="SourceGraphic" in2="effect1_dropShadow_971_1111" result="shape"/>
</filter>
</defs>
</svg>
