<svg width="26" height="25" viewBox="0 0 26 25" fill="none" xmlns="http://www.w3.org/2000/svg">
<path fill-rule="evenodd" clip-rule="evenodd" d="M14.2095 0.995597L16.7475 6.36435C16.9963 6.89141 17.4764 7.25687 18.0332 7.34144L23.711 8.20679C25.1138 8.42124 25.672 10.2214 24.6568 11.2529L20.551 15.4301C20.1475 15.8408 19.9639 16.4313 20.0593 17.0112L21.0283 22.9086C21.2669 24.3674 19.8005 25.4804 18.5466 24.7903L13.4719 22.0039C12.9744 21.7306 12.3786 21.7306 11.8797 22.0039L6.80495 24.7903C5.5511 25.4804 4.08466 24.3674 4.32473 22.9086L5.29223 17.0112C5.38768 16.4313 5.20402 15.8408 4.80053 15.4301L0.694781 11.2529C-0.320448 10.2214 0.237784 8.42124 1.64059 8.20679L7.31835 7.34144C7.87514 7.25687 8.35672 6.89141 8.60547 6.36435L11.1421 0.995597C11.7697 -0.331866 13.5818 -0.331866 14.2095 0.995597Z" fill="#039FC8" stroke="#039FC8" stroke-width="1.5" stroke-linecap="round" stroke-linejoin="round"/>
</svg>
