<svg width="26" height="25" viewBox="0 0 26 25" fill="none" xmlns="http://www.w3.org/2000/svg">
<path fill-rule="evenodd" clip-rule="evenodd" d="M14.7603 0.995597L17.2983 6.36435C17.5471 6.89141 18.0272 7.25687 18.584 7.34144L24.2618 8.20679C25.6646 8.42124 26.2228 10.2214 25.2076 11.2529L21.1018 15.4301C20.6983 15.8408 20.5147 16.4313 20.6101 17.0112L21.5791 22.9086C21.8177 24.3674 20.3512 25.4804 19.0974 24.7903L14.0227 22.0039C13.5252 21.7306 12.9294 21.7306 12.4304 22.0039L7.35574 24.7903C6.10188 25.4804 4.63544 24.3674 4.87551 22.9086L5.84302 17.0112C5.93846 16.4313 5.7548 15.8408 5.35131 15.4301L1.24556 11.2529C0.230334 10.2214 0.788565 8.42124 2.19137 8.20679L7.86913 7.34144C8.42592 7.25687 8.9075 6.89141 9.15625 6.36435L11.6929 0.995597C12.3205 -0.331866 14.1326 -0.331866 14.7603 0.995597Z" fill="#039FC8" stroke="#039FC8" stroke-width="1.5" stroke-linecap="round" stroke-linejoin="round"/>
</svg>
