<svg width="34" height="15" viewBox="0 0 34 15" fill="none" xmlns="http://www.w3.org/2000/svg">
<path fill-rule="evenodd" clip-rule="evenodd" d="M8.96709 0.597358L10.4899 3.81861C10.6392 4.13484 10.9273 4.35412 11.2613 4.40487L14.668 4.92407C15.5097 5.05274 15.8446 6.13283 15.2355 6.75171L12.772 9.25804C12.5299 9.5045 12.4197 9.85879 12.477 10.2067L13.0584 13.7451C13.2015 14.6204 12.3217 15.2883 11.5694 14.8742L8.52455 13.2024C8.22606 13.0384 7.86856 13.0384 7.5692 13.2024L4.52438 14.8742C3.77207 15.2883 2.8922 14.6204 3.03624 13.7451L3.61675 10.2067C3.67402 9.85879 3.56382 9.5045 3.32172 9.25804L0.858275 6.75171C0.249138 6.13283 0.584076 5.05274 1.42576 4.92407L4.83242 4.40487C5.16649 4.35412 5.45544 4.13484 5.60469 3.81861L7.12666 0.597358C7.50325 -0.199119 8.5905 -0.199119 8.96709 0.597358Z" fill="#FFB800" stroke="#FFB800" stroke-width="1.5" stroke-linecap="round" stroke-linejoin="round"/>
<path fill-rule="evenodd" clip-rule="evenodd" d="M26.9671 0.597358L28.4899 3.81861C28.6392 4.13484 28.9273 4.35412 29.2613 4.40487L32.668 4.92407C33.5097 5.05274 33.8446 6.13283 33.2355 6.75171L30.772 9.25804C30.5299 9.5045 30.4197 9.85879 30.477 10.2067L31.0584 13.7451C31.2015 14.6204 30.3217 15.2883 29.5694 14.8742L26.5246 13.2024C26.2261 13.0384 25.8686 13.0384 25.5692 13.2024L22.5244 14.8742C21.7721 15.2883 20.8922 14.6204 21.0362 13.7451L21.6167 10.2067C21.674 9.85879 21.5638 9.5045 21.3217 9.25804L18.8583 6.75171C18.2491 6.13283 18.5841 5.05274 19.4258 4.92407L22.8324 4.40487C23.1665 4.35412 23.4554 4.13484 23.6047 3.81861L25.1267 0.597358C25.5033 -0.199119 26.5905 -0.199119 26.9671 0.597358Z" fill="#FFB800" stroke="#FFB800" stroke-width="1.5" stroke-linecap="round" stroke-linejoin="round"/>
</svg>
