<svg width="16" height="15" viewBox="0 0 16 15" fill="none" xmlns="http://www.w3.org/2000/svg">
<path fill-rule="evenodd" clip-rule="evenodd" d="M9.11943 0.597358L10.6423 3.81861C10.7915 4.13484 11.0796 4.35412 11.4137 4.40487L14.8203 4.92407C15.662 5.05274 15.997 6.13283 15.3878 6.75171L12.9244 9.25804C12.6823 9.5045 12.5721 9.85879 12.6293 10.2067L13.2107 13.7451C13.3539 14.6204 12.474 15.2883 11.7217 14.8742L8.6769 13.2024C8.3784 13.0384 8.0209 13.0384 7.72154 13.2024L4.67672 14.8742C3.92441 15.2883 3.04455 14.6204 3.18859 13.7451L3.76909 10.2067C3.82636 9.85879 3.71616 9.5045 3.47407 9.25804L1.01062 6.75171C0.401481 6.13283 0.73642 5.05274 1.57811 4.92407L4.98476 4.40487C5.31883 4.35412 5.60778 4.13484 5.75703 3.81861L7.279 0.597358C7.65559 -0.199119 8.74284 -0.199119 9.11943 0.597358Z" fill="#FFB800" stroke="#FFB800" stroke-width="1.5" stroke-linecap="round" stroke-linejoin="round"/>
</svg>
