<svg width="26" height="25" viewBox="0 0 26 25" fill="none" xmlns="http://www.w3.org/2000/svg">
<path fill-rule="evenodd" clip-rule="evenodd" d="M14.936 0.995597L17.4741 6.36435C17.7229 6.89141 18.203 7.25687 18.7598 7.34144L24.4375 8.20679C25.8403 8.42124 26.3986 10.2214 25.3833 11.2529L21.2776 15.4301C20.8741 15.8408 20.6904 16.4313 20.7859 17.0112L21.7548 22.9086C21.9935 24.3674 20.527 25.4804 19.2732 24.7903L14.1985 22.0039C13.701 21.7306 13.1052 21.7306 12.6062 22.0039L7.53152 24.7903C6.27767 25.4804 4.81122 24.3674 5.05129 22.9086L6.0188 17.0112C6.11424 16.4313 5.93058 15.8408 5.52709 15.4301L1.42134 11.2529C0.406115 10.2214 0.964346 8.42124 2.36715 8.20679L8.04492 7.34144C8.6017 7.25687 9.08328 6.89141 9.33203 6.36435L11.8687 0.995597C12.4963 -0.331866 14.3084 -0.331866 14.936 0.995597Z" fill="#039FC8" stroke="#039FC8" stroke-width="1.5" stroke-linecap="round" stroke-linejoin="round"/>
</svg>
