<svg width="16" height="17" viewBox="0 0 16 17" fill="none" xmlns="http://www.w3.org/2000/svg">
<path fill-rule="evenodd" clip-rule="evenodd" d="M8.96709 0.673663L10.4899 4.30639C10.6392 4.66302 10.9273 4.91031 11.2613 4.96753L14.668 5.55306C15.5097 5.69816 15.8446 6.91622 15.2355 7.61416L12.772 10.4406C12.5299 10.7186 12.4197 11.1181 12.477 11.5105L13.0584 15.5009C13.2015 16.488 12.3217 17.2411 11.5694 16.7741L8.52455 14.8888C8.22606 14.7038 7.86856 14.7038 7.5692 14.8888L4.52438 16.7741C3.77207 17.2411 2.8922 16.488 3.03624 15.5009L3.61675 11.5105C3.67402 11.1181 3.56382 10.7186 3.32172 10.4406L0.858275 7.61416C0.249138 6.91622 0.584076 5.69816 1.42576 5.55306L4.83242 4.96753C5.16649 4.91031 5.45544 4.66302 5.60469 4.30639L7.12666 0.673663C7.50325 -0.224554 8.5905 -0.224554 8.96709 0.673663Z" fill="#FFB800" stroke="#FFB800" stroke-width="1.5" stroke-linecap="round" stroke-linejoin="round"/>
</svg>
