<svg width="16" height="17" viewBox="0 0 16 17" fill="none" xmlns="http://www.w3.org/2000/svg">
<path fill-rule="evenodd" clip-rule="evenodd" d="M9.26982 0.673663L10.7927 4.30639C10.9419 4.66302 11.23 4.91031 11.5641 4.96753L14.9707 5.55306C15.8124 5.69816 16.1473 6.91622 15.5382 7.61416L13.0748 10.4406C12.8327 10.7186 12.7225 11.1181 12.7797 11.5105L13.3611 15.5009C13.5043 16.488 12.6244 17.2411 11.8721 16.7741L8.82729 14.8888C8.52879 14.7038 8.17129 14.7038 7.87193 14.8888L4.82711 16.7741C4.0748 17.2411 3.19494 16.488 3.33898 15.5009L3.91948 11.5105C3.97675 11.1181 3.86655 10.7186 3.62446 10.4406L1.16101 7.61416C0.551872 6.91622 0.886811 5.69816 1.7285 5.55306L5.13515 4.96753C5.46922 4.91031 5.75817 4.66302 5.90742 4.30639L7.4294 0.673663C7.80598 -0.224554 8.89323 -0.224554 9.26982 0.673663Z" fill="#FFB800" stroke="#FFB800" stroke-width="1.5" stroke-linecap="round" stroke-linejoin="round"/>
</svg>
