<svg width="26" height="25" viewBox="0 0 26 25" fill="none" xmlns="http://www.w3.org/2000/svg">
<path fill-rule="evenodd" clip-rule="evenodd" d="M14.4849 0.995597L17.0229 6.36435C17.2717 6.89141 17.7518 7.25687 18.3086 7.34144L23.9864 8.20679C25.3892 8.42124 25.9474 10.2214 24.9322 11.2529L20.8264 15.4301C20.4229 15.8408 20.2393 16.4313 20.3347 17.0112L21.3037 22.9086C21.5423 24.3674 20.0758 25.4804 18.822 24.7903L13.7473 22.0039C13.2498 21.7306 12.654 21.7306 12.155 22.0039L7.08034 24.7903C5.82649 25.4804 4.36005 24.3674 4.60012 22.9086L5.56762 17.0112C5.66307 16.4313 5.47941 15.8408 5.07592 15.4301L0.970172 11.2529C-0.0450569 10.2214 0.513174 8.42124 1.91598 8.20679L7.59374 7.34144C8.15053 7.25687 8.63211 6.89141 8.88086 6.36435L11.4175 0.995597C12.0451 -0.331866 13.8572 -0.331866 14.4849 0.995597Z" fill="#039FC8" stroke="#039FC8" stroke-width="1.5" stroke-linecap="round" stroke-linejoin="round"/>
</svg>
