<svg width="15" height="17" viewBox="0 0 15 17" fill="none" xmlns="http://www.w3.org/2000/svg">
<path fill-rule="evenodd" clip-rule="evenodd" d="M8.42021 0.673663L9.94306 4.30639C10.0923 4.66302 10.3804 4.91031 10.7145 4.96753L14.1211 5.55306C14.9628 5.69816 15.2977 6.91622 14.6886 7.61416L12.2252 10.4406C11.9831 10.7186 11.8729 11.1181 11.9301 11.5105L12.5115 15.5009C12.6547 16.488 11.7748 17.2411 11.0225 16.7741L7.97768 14.8888C7.67918 14.7038 7.32168 14.7038 7.02232 14.8888L3.9775 16.7741C3.22519 17.2411 2.34533 16.488 2.48937 15.5009L3.06987 11.5105C3.12714 11.1181 3.01694 10.7186 2.77485 10.4406L0.3114 7.61416C-0.297737 6.91622 0.0372014 5.69816 0.878887 5.55306L4.28554 4.96753C4.61961 4.91031 4.90856 4.66302 5.05781 4.30639L6.57979 0.673663C6.95638 -0.224554 8.04362 -0.224554 8.42021 0.673663Z" fill="#FFB800" stroke="#FFB800" stroke-width="1.5" stroke-linecap="round" stroke-linejoin="round"/>
</svg>
