<svg width="16" height="17" viewBox="0 0 16 17" fill="none" xmlns="http://www.w3.org/2000/svg">
<path fill-rule="evenodd" clip-rule="evenodd" d="M9.11943 0.673663L10.6423 4.30639C10.7915 4.66302 11.0796 4.91031 11.4137 4.96753L14.8203 5.55306C15.662 5.69816 15.997 6.91622 15.3878 7.61416L12.9244 10.4406C12.6823 10.7186 12.5721 11.1181 12.6293 11.5105L13.2107 15.5009C13.3539 16.488 12.474 17.2411 11.7217 16.7741L8.6769 14.8888C8.3784 14.7038 8.0209 14.7038 7.72154 14.8888L4.67672 16.7741C3.92441 17.2411 3.04455 16.488 3.18859 15.5009L3.76909 11.5105C3.82636 11.1181 3.71616 10.7186 3.47407 10.4406L1.01062 7.61416C0.401481 6.91622 0.73642 5.69816 1.57811 5.55306L4.98476 4.96753C5.31883 4.91031 5.60778 4.66302 5.75703 4.30639L7.279 0.673663C7.65559 -0.224554 8.74284 -0.224554 9.11943 0.673663Z" fill="#FFB800" stroke="#FFB800" stroke-width="1.5" stroke-linecap="round" stroke-linejoin="round"/>
</svg>
