<svg width="16" height="15" viewBox="0 0 16 15" fill="none" xmlns="http://www.w3.org/2000/svg">
<path fill-rule="evenodd" clip-rule="evenodd" d="M8.96709 0.597358L10.4899 3.81861C10.6392 4.13484 10.9273 4.35412 11.2613 4.40487L14.668 4.92407C15.5097 5.05274 15.8446 6.13283 15.2355 6.75171L12.772 9.25804C12.5299 9.5045 12.4197 9.85879 12.477 10.2067L13.0584 13.7451C13.2015 14.6204 12.3217 15.2883 11.5694 14.8742L8.52455 13.2024C8.22606 13.0384 7.86856 13.0384 7.5692 13.2024L4.52438 14.8742C3.77207 15.2883 2.8922 14.6204 3.03624 13.7451L3.61675 10.2067C3.67402 9.85879 3.56382 9.5045 3.32172 9.25804L0.858275 6.75171C0.249138 6.13283 0.584076 5.05274 1.42576 4.92407L4.83242 4.40487C5.16649 4.35412 5.45544 4.13484 5.60469 3.81861L7.12666 0.597358C7.50325 -0.199119 8.5905 -0.199119 8.96709 0.597358Z" fill="#FFB800" stroke="#FFB800" stroke-width="1.5" stroke-linecap="round" stroke-linejoin="round"/>
</svg>
