<svg width="16" height="15" viewBox="0 0 16 15" fill="none" xmlns="http://www.w3.org/2000/svg">
<path fill-rule="evenodd" clip-rule="evenodd" d="M9.26982 0.597358L10.7927 3.81861C10.9419 4.13484 11.23 4.35412 11.5641 4.40487L14.9707 4.92407C15.8124 5.05274 16.1473 6.13283 15.5382 6.75171L13.0748 9.25804C12.8327 9.5045 12.7225 9.85879 12.7797 10.2067L13.3611 13.7451C13.5043 14.6204 12.6244 15.2883 11.8721 14.8742L8.82729 13.2024C8.52879 13.0384 8.17129 13.0384 7.87193 13.2024L4.82711 14.8742C4.0748 15.2883 3.19494 14.6204 3.33898 13.7451L3.91948 10.2067C3.97675 9.85879 3.86655 9.5045 3.62446 9.25804L1.16101 6.75171C0.551872 6.13283 0.886811 5.05274 1.7285 4.92407L5.13515 4.40487C5.46922 4.35412 5.75817 4.13484 5.90742 3.81861L7.4294 0.597358C7.80598 -0.199119 8.89323 -0.199119 9.26982 0.597358Z" fill="#FFB800" stroke="#FFB800" stroke-width="1.5" stroke-linecap="round" stroke-linejoin="round"/>
</svg>
