<svg width="25" height="25" viewBox="0 0 25 25" fill="none" xmlns="http://www.w3.org/2000/svg">
<path fill-rule="evenodd" clip-rule="evenodd" d="M14.0337 0.995597L16.5718 6.36435C16.8205 6.89141 17.3006 7.25687 17.8574 7.34144L23.5352 8.20679C24.938 8.42124 25.4962 10.2214 24.481 11.2529L20.3753 15.4301C19.9718 15.8408 19.7881 16.4313 19.8835 17.0112L20.8525 22.9086C21.0911 24.3674 19.6247 25.4804 18.3708 24.7903L13.2961 22.0039C12.7986 21.7306 12.2028 21.7306 11.7039 22.0039L6.62917 24.7903C5.37532 25.4804 3.90888 24.3674 4.14895 22.9086L5.11645 17.0112C5.2119 16.4313 5.02823 15.8408 4.62475 15.4301L0.519 11.2529C-0.496229 10.2214 0.0620024 8.42124 1.46481 8.20679L7.14257 7.34144C7.69936 7.25687 8.18094 6.89141 8.42968 6.36435L10.9663 0.995597C11.594 -0.331866 13.406 -0.331866 14.0337 0.995597Z" fill="#039FC8" stroke="#039FC8" stroke-width="1.5" stroke-linecap="round" stroke-linejoin="round"/>
</svg>
