<svg width="16" height="17" viewBox="0 0 16 17" fill="none" xmlns="http://www.w3.org/2000/svg">
<path fill-rule="evenodd" clip-rule="evenodd" d="M8.8167 0.673663L10.3395 4.30639C10.4888 4.66302 10.7769 4.91031 11.1109 4.96753L14.5176 5.55306C15.3593 5.69816 15.6942 6.91622 15.0851 7.61416L12.6216 10.4406C12.3795 10.7186 12.2693 11.1181 12.3266 11.5105L12.908 15.5009C13.0512 16.488 12.1713 17.2411 11.419 16.7741L8.37416 14.8888C8.07567 14.7038 7.71817 14.7038 7.41881 14.8888L4.37399 16.7741C3.62168 17.2411 2.74181 16.488 2.88585 15.5009L3.46636 11.5105C3.52363 11.1181 3.41343 10.7186 3.17133 10.4406L0.707884 7.61416C0.0987471 6.91622 0.433686 5.69816 1.27537 5.55306L4.68203 4.96753C5.0161 4.91031 5.30505 4.66302 5.4543 4.30639L6.97627 0.673663C7.35286 -0.224554 8.44011 -0.224554 8.8167 0.673663Z" stroke="#FFB800" stroke-width="1.5" stroke-linecap="round" stroke-linejoin="round"/>
</svg>
