<svg width="19" height="20" viewBox="0 0 19 20" fill="none" xmlns="http://www.w3.org/2000/svg">
<path d="M13.7226 6.66667L8.09294 13.3333L5.27778 10M0 16.4447V3.55577C0 2.31121 0 1.68847 0.230097 1.21311C0.432497 0.79497 0.755221 0.45526 1.15245 0.242208C1.60404 0 2.19565 0 3.37798 0H15.6224C16.8048 0 17.3951 0 17.8467 0.242208C18.2439 0.45526 18.5677 0.79497 18.7701 1.21311C19 1.688 19 2.30999 19 3.55212V16.4484C19 17.6905 19 18.3116 18.7701 18.7865C18.5677 19.2047 18.2439 19.545 17.8467 19.758C17.3955 20 16.8055 20 15.6255 20H3.37452C2.19449 20 1.6036 20 1.15245 19.758C0.755221 19.545 0.432497 19.2047 0.230097 18.7865C0 18.3112 0 17.6892 0 16.4447Z" stroke="#039FC8" stroke-width="2" stroke-linecap="round" stroke-linejoin="round"/>
</svg>
