<svg width="26" height="28" viewBox="0 0 26 28" fill="none" xmlns="http://www.w3.org/2000/svg">
<path d="M0.703125 13.5751C0.703125 21.0767 6.19545 27.158 12.9706 27.158C19.7457 27.158 25.238 21.0767 25.238 13.5751C25.238 6.07347 19.7457 -0.0078125 12.9706 -0.0078125C6.19545 -0.0078125 0.703125 6.07347 0.703125 13.5751Z" fill="#71B247"/>
<path d="M17.0597 10.5567L11.6075 16.5935L8.88142 13.5751M12.9706 27.158C6.19545 27.158 0.703125 21.0767 0.703125 13.5751C0.703125 6.07347 6.19545 -0.0078125 12.9706 -0.0078125C19.7457 -0.0078125 25.238 6.07347 25.238 13.5751C25.238 21.0767 19.7457 27.158 12.9706 27.158Z" stroke="white" stroke-width="2" stroke-linecap="round" stroke-linejoin="round"/>
</svg>
