<svg width="108" height="108" viewBox="0 0 108 108" fill="none" xmlns="http://www.w3.org/2000/svg">
<path d="M68.8032 8.99595L61.4773 2.75282C57.1703 -0.917608 50.8315 -0.917608 46.5245 2.75282L39.1977 8.99613C37.3521 10.569 35.0571 11.5191 32.6399 11.712L23.0527 12.4767C17.4118 12.9268 12.9253 17.4063 12.4751 23.0472L11.7075 32.6422C11.5146 35.0595 10.5708 37.3533 8.9979 39.199L2.75194 46.5263C-0.918462 50.8333 -0.91674 57.1669 2.75366 61.4739L8.994 68.8012C10.5669 70.6469 11.5199 72.9408 11.7128 75.358L12.4804 84.953C12.9305 90.5939 17.4041 95.0734 23.045 95.5235L32.6428 96.2882C35.0601 96.4811 37.3539 97.4312 39.1996 99.0041L46.5239 105.248C50.8309 108.918 57.1703 108.917 61.4773 105.247L68.8016 99.0035C70.6472 97.4306 72.9411 96.4822 75.3583 96.2893L84.9562 95.5235C90.597 95.0734 95.0706 90.5928 95.5208 84.9519L96.2884 75.3574C96.4813 72.9401 97.4343 70.6443 99.0072 68.7986L105.247 61.4736C108.918 57.1665 108.917 50.831 105.247 46.524L99.0066 39.2001C97.4337 37.3544 96.4795 35.0594 96.2866 32.6422L95.5237 23.0461C95.0736 17.4052 90.593 12.9274 84.9521 12.4773L75.3577 11.7126C72.9405 11.5197 70.6488 10.5688 68.8032 8.99595Z" fill="#71B247"/>
<path d="M72.0009 41.9998L48.0005 66.0004L36.0003 54.0001M61.4773 2.75282L68.8032 8.99595C70.6488 10.5688 72.9405 11.5197 75.3577 11.7126L84.9521 12.4773C90.593 12.9274 95.0736 17.4052 95.5237 23.0461L96.2866 32.6422C96.4795 35.0594 97.4337 37.3544 99.0066 39.2001L105.247 46.524C108.917 50.831 108.918 57.1665 105.247 61.4736L99.0072 68.7986C97.4343 70.6443 96.4813 72.9401 96.2884 75.3574L95.5208 84.9519C95.0706 90.5928 90.597 95.0734 84.9562 95.5235L75.3583 96.2893C72.9411 96.4822 70.6473 97.4306 68.8016 99.0035L61.4773 105.247C57.1703 108.917 50.8309 108.918 46.5239 105.248L39.1996 99.0041C37.3539 97.4312 35.0601 96.4811 32.6428 96.2882L23.045 95.5235C17.4041 95.0734 12.9305 90.5939 12.4804 84.953L11.7128 75.358C11.5199 72.9408 10.5669 70.6469 8.994 68.8012L2.75366 61.4739C-0.91674 57.1669 -0.918461 50.8333 2.75194 46.5263L8.9979 39.199C10.5707 37.3533 11.5146 35.0595 11.7075 32.6422L12.4751 23.0472C12.9253 17.4063 17.4118 12.9268 23.0527 12.4767L32.6399 11.712C35.0571 11.5191 37.3521 10.569 39.1977 8.99613L46.5245 2.75282C50.8315 -0.917608 57.1703 -0.917608 61.4773 2.75282Z" stroke="white" stroke-width="10" stroke-linecap="round" stroke-linejoin="round"/>
</svg>
