<svg width="26" height="28" viewBox="0 0 26 28" fill="none" xmlns="http://www.w3.org/2000/svg">
<path d="M0.703125 14.4071C0.703125 21.9088 6.19545 27.9901 12.9706 27.9901C19.7457 27.9901 25.238 21.9088 25.238 14.4071C25.238 6.9055 19.7457 0.824219 12.9706 0.824219C6.19545 0.824219 0.703125 6.9055 0.703125 14.4071Z" fill="#71B247"/>
<path d="M17.0597 11.3887L11.6075 17.4256L8.88142 14.4071M12.9706 27.9901C6.19545 27.9901 0.703125 21.9088 0.703125 14.4071C0.703125 6.9055 6.19545 0.824219 12.9706 0.824219C19.7457 0.824219 25.238 6.9055 25.238 14.4071C25.238 21.9088 19.7457 27.9901 12.9706 27.9901Z" stroke="white" stroke-width="2" stroke-linecap="round" stroke-linejoin="round"/>
</svg>
