<svg width="19" height="23" viewBox="0 0 19 23" fill="none" xmlns="http://www.w3.org/2000/svg">
<path d="M13.7226 7.82137L8.09294 15.2716L5.27778 11.5465M0 18.7487V4.34482C0 2.95397 0 2.25803 0.230097 1.72679C0.432497 1.25951 0.755221 0.879865 1.15245 0.641771C1.60404 0.371094 2.19565 0.371094 3.37798 0.371094H15.6224C16.8048 0.371094 17.3951 0.371094 17.8467 0.641771C18.2439 0.879865 18.5677 1.25951 18.7701 1.72679C19 2.25751 19 2.95261 19 4.34074V18.7529C19 20.141 19 20.8351 18.7701 21.3658C18.5677 21.8331 18.2439 22.2134 17.8467 22.4515C17.3955 22.7219 16.8055 22.7219 15.6255 22.7219H3.37452C2.19449 22.7219 1.6036 22.7219 1.15245 22.4515C0.755221 22.2134 0.432497 21.8331 0.230097 21.3658C0 20.8346 0 20.1395 0 18.7487Z" stroke="#039FC8" stroke-width="2" stroke-linecap="round" stroke-linejoin="round"/>
</svg>
