<svg width="20" height="15" viewBox="0 0 20 15" fill="none" xmlns="http://www.w3.org/2000/svg">
<path d="M0.999202 9.72358C2.90292 11.9349 6.22297 15 10.0002 15C13.7775 15 17.0969 11.9349 19.0006 9.72358C19.5027 9.14039 19.7546 8.8478 19.9144 8.2752C20.0285 7.86666 20.0285 7.13347 19.9145 6.72492C19.7546 6.1523 19.5027 5.85967 19.0006 5.27642C17.0969 3.06512 13.7775 0 10.0002 0C6.22297 0 2.90292 3.06513 0.999202 5.27642C0.496735 5.86007 0.24548 6.1521 0.0855492 6.72492C-0.0285164 7.13347 -0.0285164 7.86666 0.0855492 8.2752C0.24548 8.84802 0.496734 9.13993 0.999202 9.72358Z" stroke="#039FC8" stroke-width="2" stroke-linecap="round" stroke-linejoin="round"/>
<path d="M7.86034 7.50005C7.86034 8.88077 8.81831 10.0001 10 10.0001C11.1817 10.0001 12.1397 8.88077 12.1397 7.50005C12.1397 6.11933 11.1817 5.00003 10 5.00003C8.81831 5.00003 7.86034 6.11933 7.86034 7.50005Z" stroke="#039FC8" stroke-width="2" stroke-linecap="round" stroke-linejoin="round"/>
</svg>
