<svg width="25" height="29" viewBox="0 0 25 29" fill="none" xmlns="http://www.w3.org/2000/svg">
<path d="M0 5.70605V23.6405C0 25.3723 0 26.237 0.30276 26.8984C0.569075 27.4802 0.993712 27.9545 1.51638 28.251C2.11 28.5877 2.88749 28.5877 4.44015 28.5877H20.5598C22.1125 28.5877 22.8889 28.5877 23.4825 28.251C24.0052 27.9545 24.4312 27.4802 24.6975 26.8984C25 26.2376 25 25.3734 25 23.645V5.70097C25 3.97258 25 3.1071 24.6975 2.4463C24.4312 1.86448 24.0052 1.39178 23.4825 1.09533C22.8883 0.758301 22.1115 0.758301 20.5558 0.758301H4.44472C2.88901 0.758301 2.11058 0.758301 1.51638 1.09533C0.993712 1.39178 0.569075 1.86448 0.30276 2.4463C0 3.10775 0 3.97428 0 5.70605Z" stroke="#898989" stroke-opacity="0.75" stroke-width="2" stroke-linecap="round" stroke-linejoin="round"/>
</svg>
