<svg width="25" height="25" viewBox="0 0 25 25" fill="none" xmlns="http://www.w3.org/2000/svg">
<path d="M0 4.44472V20.5558C0 22.1115 0 22.8883 0.30276 23.4825C0.569075 24.0052 0.993712 24.4312 1.51638 24.6975C2.11 25 2.88749 25 4.44015 25H20.5598C22.1125 25 22.8889 25 23.4825 24.6975C24.0052 24.4312 24.4312 24.0052 24.6975 23.4825C25 22.8889 25 22.1125 25 20.5598V4.44015C25 2.88749 25 2.11 24.6975 1.51638C24.4312 0.993712 24.0052 0.569075 23.4825 0.30276C22.8883 0 22.1115 0 20.5558 0H4.44472C2.88901 0 2.11058 0 1.51638 0.30276C0.993712 0.569075 0.569075 0.993712 0.30276 1.51638C0 2.11058 0 2.88901 0 4.44472Z" stroke="#898989" stroke-opacity="0.75" stroke-width="2" stroke-linecap="round" stroke-linejoin="round"/>
</svg>
