<svg width="30" height="20" viewBox="0 0 30 20" fill="none" xmlns="http://www.w3.org/2000/svg">
<path d="M1.4988 12.9648C4.35438 15.9132 9.33446 20 15.0003 20C20.6662 20 25.6453 15.9132 28.5009 12.9648C29.254 12.1872 29.6319 11.7971 29.8717 11.0336C30.0428 10.4889 30.0428 9.51129 29.8717 8.96657C29.6319 8.20307 29.2541 7.81289 28.5009 7.03523C25.6453 4.08683 20.6662 0 15.0003 0C9.33446 0 4.35438 4.08683 1.4988 7.03523C0.745103 7.81343 0.36822 8.2028 0.128324 8.96656C-0.0427746 9.51129 -0.0427746 10.4889 0.128324 11.0336C0.368221 11.7974 0.745101 12.1866 1.4988 12.9648Z" stroke="#039FC8" stroke-width="2" stroke-linecap="round" stroke-linejoin="round"/>
<path d="M11.7905 10.0001C11.7905 11.841 13.2275 13.3334 15 13.3334C16.7726 13.3334 18.2096 11.841 18.2096 10.0001C18.2096 8.15911 16.7726 6.66671 15 6.66671C13.2275 6.66671 11.7905 8.15911 11.7905 10.0001Z" stroke="#039FC8" stroke-width="2" stroke-linecap="round" stroke-linejoin="round"/>
</svg>
