<svg width="26" height="28" viewBox="0 0 26 28" fill="none" xmlns="http://www.w3.org/2000/svg">
<path d="M0.703125 14.1444C0.703125 21.6461 6.19545 27.7274 12.9706 27.7274C19.7457 27.7274 25.238 21.6461 25.238 14.1444C25.238 6.6428 19.7457 0.561523 12.9706 0.561523C6.19545 0.561523 0.703125 6.6428 0.703125 14.1444Z" fill="#71B247"/>
<path d="M17.0597 11.126L11.6075 17.1629L8.88142 14.1444M12.9706 27.7274C6.19545 27.7274 0.703125 21.6461 0.703125 14.1444C0.703125 6.6428 6.19545 0.561523 12.9706 0.561523C19.7457 0.561523 25.238 6.6428 25.238 14.1444C25.238 21.6461 19.7457 27.7274 12.9706 27.7274Z" stroke="white" stroke-width="2" stroke-linecap="round" stroke-linejoin="round"/>
</svg>
