<svg width="20" height="20" viewBox="0 0 20 20" fill="none" xmlns="http://www.w3.org/2000/svg">
<path d="M14.4448 6.66667L8.51888 13.3333L5.55556 10M0 16.4447V3.55577C0 2.31121 0 1.68847 0.242208 1.21311C0.45526 0.79497 0.79497 0.45526 1.21311 0.242208C1.68847 0 2.31121 0 3.55577 0H16.4447C17.6892 0 18.3106 0 18.786 0.242208C19.2041 0.45526 19.545 0.79497 19.758 1.21311C20 1.688 20 2.30999 20 3.55212V16.4484C20 17.6905 20 18.3116 19.758 18.7865C19.545 19.2047 19.2041 19.545 18.786 19.758C18.3111 20 17.69 20 16.4479 20H3.55212C2.30999 20 1.688 20 1.21311 19.758C0.79497 19.545 0.45526 19.2047 0.242208 18.7865C0 18.3112 0 17.6892 0 16.4447Z" stroke="#039FC8" stroke-width="2" stroke-linecap="round" stroke-linejoin="round"/>
</svg>
