<svg width="25" height="22" viewBox="0 0 25 22" fill="none" xmlns="http://www.w3.org/2000/svg">
<path d="M18.6719 12.2852H6.32812C5.15625 12.2852 4.6875 12.6724 4.6875 13.6344V16.0788C4.6875 17.0408 5.15625 17.428 6.32812 17.428H18.6719C19.8438 17.428 20.3125 17.0408 20.3125 16.0788V13.6344C20.3125 12.6724 19.8438 12.2852 18.6719 12.2852Z" fill="#039FC8"/>
<path opacity="0.4" d="M13.4215 4.57129H6.37019C5.16827 4.57129 4.6875 4.95852 4.6875 5.92053V8.3649C4.6875 9.32692 5.16827 9.71415 6.37019 9.71415H13.4215C14.6234 9.71415 15.1042 9.32692 15.1042 8.3649V5.92053C15.1042 4.95852 14.6234 4.57129 13.4215 4.57129Z" fill="#039FC8"/>
</svg>
