<svg width="17" height="17" viewBox="0 0 17 17" fill="none" xmlns="http://www.w3.org/2000/svg">
<path d="M15.2279 7.72018V2.90352C15.2279 1.84102 14.7745 1.41602 13.6483 1.41602H10.7866C9.66036 1.41602 9.20703 1.84102 9.20703 2.90352V7.72018C9.20703 8.78268 9.66036 9.20768 10.7866 9.20768H13.6483C14.7745 9.20768 15.2279 8.78268 15.2279 7.72018Z" fill="#039FC8"/>
<path d="M7.79036 9.27852V14.0952C7.79036 15.1577 7.33703 15.5827 6.21078 15.5827H3.34911C2.22286 15.5827 1.76953 15.1577 1.76953 14.0952V9.27852C1.76953 8.21602 2.22286 7.79102 3.34911 7.79102H6.21078C7.33703 7.79102 7.79036 8.21602 7.79036 9.27852Z" fill="#039FC8"/>
<path opacity="0.4" d="M15.2279 14.0958V12.1125C15.2279 11.05 14.7745 10.625 13.6483 10.625H10.7866C9.66036 10.625 9.20703 11.05 9.20703 12.1125V14.0958C9.20703 15.1583 9.66036 15.5833 10.7866 15.5833H13.6483C14.7745 15.5833 15.2279 15.1583 15.2279 14.0958Z" fill="#039FC8"/>
<path opacity="0.4" d="M7.79036 4.88685V2.90352C7.79036 1.84102 7.33703 1.41602 6.21078 1.41602H3.34911C2.22286 1.41602 1.76953 1.84102 1.76953 2.90352V4.88685C1.76953 5.94935 2.22286 6.37435 3.34911 6.37435H6.21078C7.33703 6.37435 7.79036 5.94935 7.79036 4.88685Z" fill="#039FC8"/>
</svg>
